<svg xmlns="http://www.w3.org/2000/svg" width="536.808" height="536" viewBox="0 0 536.808 536">
  <g id="line" transform="translate(0 -0.022)">
    <path id="Path_297" data-name="Path 297" d="M0,230.737C0,344.726,94.559,440.65,223.53,458.6c8.653,1.9,10.576,3.868,10.621,3.868,1.588,3.6-2.46,20.817-4.2,37.408-4.4,29.4,14.333,44.764,45.435,31.1,29.425-12.9,149.653-92.592,203.742-157.882,59.365-68.331,73.7-150.771,39.331-226.213C409.786-91.422,0-22.711,0,230.737ZM453.544,351.39c-49.236,59.432-159.917,133.823-189.789,148.021,3.846-30.856,15.182-62.965-34.3-73.809C115.935,409.771,33.54,327.822,33.54,230.737c0-217.314,360.617-275.718,454.372-69.941C516.6,223.76,504.189,293.12,453.544,351.39Z" transform="translate(0 0)" fill="#fff"/>
    <path id="Path_298" data-name="Path 298" d="M65.4,116.209H38.432V23.618a16.77,16.77,0,0,0-33.54,0V133a16.776,16.776,0,0,0,16.77,16.77H65.4C87.578,149.749,87.578,116.209,65.4,116.209Z" transform="translate(104.492 145.809)" fill="#fff"/>
    <path id="Path_299" data-name="Path 299" d="M9.423,23.5c5.009,84.251-12.32,126.153,16.77,126.153a16.776,16.776,0,0,0,16.77-16.77V23.5c0-22.181-33.54-22.2-33.54,0Z" transform="translate(187.454 145.929)" fill="#fff"/>
    <path id="Path_300" data-name="Path 300" d="M76.157,40.388c22.181,0,22.2-33.54,0-33.54H32.422a16.776,16.776,0,0,0-16.77,16.77V133a16.776,16.776,0,0,0,16.77,16.77H76.157c22.181,0,22.2-33.54,0-33.54H49.192V95.079H76.157c22.181,0,22.2-33.54,0-33.54H49.192V40.388Z" transform="translate(334.322 145.809)" fill="#fff"/>
    <path id="Path_301" data-name="Path 301" d="M76.386,23.6V72.436L41.929,14.993C33.164.415,10.76,6.7,10.76,23.624V133.008a16.77,16.77,0,0,0,33.54,0V84.174l34.456,57.442a16.817,16.817,0,0,0,14.4,8.139,17.09,17.09,0,0,0,4.472-.6,16.779,16.779,0,0,0,12.3-16.166V23.6C109.925,1.421,76.386,1.4,76.386,23.6Z" transform="translate(229.83 145.824)" fill="#fff"/>
  </g>
</svg>
