<svg xmlns="http://www.w3.org/2000/svg" width="512.001" height="512.018" viewBox="0 0 512.001 512.018"><defs><style>.a{fill:#f4f4f4;}.b{fill:#fff;}</style></defs><g transform="translate(-0.009)"><path class="a" d="M178.229,376.467,135.562,333.8a10.455,10.455,0,0,0-8.363-3.115,10.665,10.665,0,0,0-7.787,4.267l-117.269,160a10.666,10.666,0,0,0,14.933,14.933l160-117.333a10.668,10.668,0,0,0,1.238-16.149Z"/><path class="a" d="M316.895,301.8,210.229,195.134a95.09,95.09,0,0,0-63.019-19.947A110.059,110.059,0,0,0,67.125,205.8c-17.323,17.323-15.531,44.1,5.333,79.6a467.077,467.077,0,0,0,69.333,84.821c42.432,42.411,96,86.485,135.04,86.485a39.916,39.916,0,0,0,29.376-11.819C350.623,400.488,339.551,324.478,316.895,301.8Z"/><path class="b" d="M402.229,216.467,295.562,109.8a10.667,10.667,0,0,0-15.083,0l-85.333,85.333c-13.952,13.952-12.8,44.8,32,89.749,29.248,29.248,52.565,39.893,69.12,39.893a28.306,28.306,0,0,0,20.629-7.893l85.333-85.333A10.665,10.665,0,0,0,402.229,216.467Z"/><path class="a" d="M511.2,187.944a10.668,10.668,0,0,0-9.856-6.592c-23.125,0-73.9-25-109.781-60.885S330.677,33.832,330.677,10.686a10.667,10.667,0,0,0-18.219-7.552c-43.563,43.584-57.173,117.909,10.667,185.749a142.632,142.632,0,0,0,100.693,47.125,120.68,120.68,0,0,0,85.056-36.459A10.666,10.666,0,0,0,511.2,187.944Z"/><path class="b" d="M444.895,67.134C399.711,21.971,358.858.019,320.01.019a10.667,10.667,0,0,0-10.667,10.667c0,31.851,30.123,87.872,67.115,124.885s93.056,67.115,124.885,67.115a10.667,10.667,0,0,0,10.667-10.667C512.01,153.15,490.058,112.3,444.895,67.134Z"/></g></svg>