<svg id="whatsapp" xmlns="http://www.w3.org/2000/svg" width="512" height="512" viewBox="0 0 512 512">
  <path id="Path_302" data-name="Path 302" d="M439.277,72.723A246.643,246.643,0,0,0,263.711,0h-.023A248.334,248.334,0,0,0,43.047,362.164L1.313,481.391A23.026,23.026,0,0,0,22.941,512a23.188,23.188,0,0,0,7.668-1.312l119.227-41.73A248.3,248.3,0,0,0,439.277,72.723Zm-21.234,329.9a218.342,218.342,0,0,1-256.793,38.41,23.126,23.126,0,0,0-18.445-1.43l-108.32,37.91L72.4,369.2a23.133,23.133,0,0,0-1.434-18.449A218.284,218.284,0,0,1,263.691,30.027h.02a218.261,218.261,0,0,1,154.332,372.6Zm0,0" fill="#fff"/>
  <path id="Path_303" data-name="Path 303" d="M355.984,270.469a29.329,29.329,0,0,0-41.43,0l-12.492,12.492a181.839,181.839,0,0,1-73.027-73.023l12.492-12.492a29.322,29.322,0,0,0,0-41.43l-33.664-33.664a29.329,29.329,0,0,0-41.43,0l-26.93,26.93c-15.426,15.426-16.2,41.945-2.168,74.676,12.18,28.418,34.469,59.652,62.762,87.945s59.527,50.582,87.945,62.762c15.551,6.664,29.7,9.988,41.918,9.988,13.5,0,24.66-4.059,32.758-12.156l26.93-26.934v0a29.291,29.291,0,0,0,0-41.43Zm-14.5,80.793c-4.4,4.4-17.941,5.945-41.609-4.2-24.992-10.711-52.887-30.742-78.543-56.4s-45.684-53.547-56.395-78.539c-10.145-23.668-8.6-37.211-4.2-41.613L187.152,144.1l32.625,32.629-15.637,15.641a22.917,22.917,0,0,0-4.242,26.684A211.845,211.845,0,0,0,292.945,312.1a22.916,22.916,0,0,0,26.688-4.242l15.637-15.637L367.9,324.852Zm0,0" fill="#fff"/>
</svg>
