<svg xmlns="http://www.w3.org/2000/svg" width="118.874" height="118.899" viewBox="0 0 118.874 118.899">
  <path id="customer-service" d="M122.692,60.025l-5.975-4.192a52.744,52.744,0,0,0-105.448,0L5.308,60.025a1.752,1.752,0,0,0-.745,1.433V80.069A1.749,1.749,0,0,0,5.3,81.493l6.686,4.778A1.752,1.752,0,0,0,13,86.6h6.658a1.751,1.751,0,0,0,1.75-1.75V56.875c0-.024.008-.048.009-.073a42.581,42.581,0,1,1,85.161,0,.715.715,0,0,0,.014.191V84.847a1.751,1.751,0,0,0,1.75,1.75h1.579v2.016a11.155,11.155,0,0,1-9.45,11,39.623,39.623,0,0,0,3.377-16.03V57.939a39.855,39.855,0,1,0-79.71,0V83.588a39.842,39.842,0,0,0,74.495,19.673h.14a14.664,14.664,0,0,0,14.648-14.648V86.6H115a1.752,1.752,0,0,0,1.018-.326L122.7,81.5a1.749,1.749,0,0,0,.733-1.424V61.458a1.752,1.752,0,0,0-.745-1.433Zm-58.7-38.441a36.4,36.4,0,0,1,36.355,36.355v9.424a36.5,36.5,0,0,1-3.652.206,36.171,36.171,0,0,1-31.189-18,1.75,1.75,0,0,0-3.028,0,36.171,36.171,0,0,1-31.189,18,36.5,36.5,0,0,1-3.652-.206V57.939A36.4,36.4,0,0,1,63.993,21.584Zm0,98.359A36.4,36.4,0,0,1,27.638,83.588V70.881c1.214.111,2.433.188,3.652.188a39.69,39.69,0,0,0,32.7-17.335A39.69,39.69,0,0,0,96.7,71.069c1.219,0,2.438-.077,3.652-.188V83.588A36.128,36.128,0,0,1,96.54,99.761H80.125A5.709,5.709,0,0,0,74.7,95.81H67.768a5.7,5.7,0,1,0,0,11.4H74.7a5.71,5.71,0,0,0,5.424-3.952H94.541a36.345,36.345,0,0,1-30.548,16.685Zm12.9-18.325a2.2,2.2,0,0,1-2.191,2.095H67.768a2.2,2.2,0,0,1,0-4.4H74.7a2.2,2.2,0,0,1,2.191,2.1c0,.036-.011.07-.011.106S76.889,101.582,76.892,101.618ZM17.908,83.1H13.561l-5.5-3.928v-16.8l5.489-3.851h4.356ZM63.993,11.6A46.349,46.349,0,0,0,17.985,55.017h-3.2a49.26,49.26,0,0,1,98.413,0H110A46.35,46.35,0,0,0,63.993,11.592Zm55.944,67.577-5.5,3.928H110.09V58.517h4.356l5.489,3.851Z" transform="translate(-4.563 -4.547)" fill="#fff"/>
</svg>
